<?xml version="1.0" standalone="no"?>
<!DOCTYPE svg PUBLIC "-//W3C//DTD SVG 20010904//EN"
 "http://www.w3.org/TR/2001/REC-SVG-20010904/DTD/svg10.dtd">
<svg version="1.0" xmlns="http://www.w3.org/2000/svg"
 width="639.000000pt" height="217.000000pt" viewBox="0 0 639.000000 217.000000"
 preserveAspectRatio="xMidYMid meet">
<metadata>
Created by potrace 1.16, written by Peter Selinger 2001-2019
</metadata>
<g transform="translate(0.000000,217.000000) scale(0.100000,-0.100000)"
fill="#000000" stroke="none">
<path d="M881 2132 c-18 -20 -53 -65 -79 -99 -92 -121 -162 -200 -316 -361
-86 -89 -156 -166 -156 -171 0 -5 -6 -16 -13 -23 -22 -24 -111 -188 -102 -188
2 0 -3 -16 -11 -35 -7 -19 -14 -37 -14 -40 0 -3 26 -5 58 -5 l58 0 18 50 c10
28 22 50 26 50 4 0 11 11 14 24 3 14 12 31 19 38 7 7 23 30 35 50 13 20 37 49
55 65 45 41 277 291 309 333 14 19 39 49 54 66 16 16 39 43 51 60 20 27 22 28
29 9 4 -11 25 -47 46 -80 21 -33 38 -65 38 -72 0 -6 3 -13 8 -15 7 -3 103
-212 106 -232 1 -6 5 -17 10 -24 4 -7 6 -15 5 -16 -2 -2 -56 -20 -119 -40
-125 -41 -240 -103 -310 -169 l-45 -42 84 -3 c79 -3 88 -1 150 31 36 19 136
57 222 85 85 28 203 71 262 96 59 24 107 42 107 40 0 -8 -82 -188 -109 -239
-17 -32 -31 -59 -31 -61 0 -2 29 -4 64 -4 l65 0 27 58 c15 31 37 79 49 107
l22 49 7 -59 c3 -33 9 -81 12 -107 l6 -48 51 0 52 0 -1 57 c-2 75 -11 152 -28
244 -8 41 -12 77 -9 82 2 4 1 13 -4 20 -7 11 -12 38 -14 79 0 10 -4 20 -8 23
-5 2 -71 -24 -147 -59 -77 -35 -164 -72 -195 -84 l-56 -21 -14 42 c-8 23 -13
45 -11 50 1 4 -3 7 -10 7 -6 0 -9 3 -5 6 3 4 -5 28 -19 55 -13 27 -21 49 -17
49 5 0 4 4 -2 8 -5 4 -25 36 -43 72 -35 70 -64 122 -72 130 -10 10 -31 45 -36
63 -4 9 -9 17 -13 17 -4 0 -15 17 -26 38 -11 20 -27 47 -36 59 l-16 22 -32
-37z"/>
<path d="M3572 2041 c-61 -29 -98 -73 -148 -176 -89 -185 -134 -462 -134 -820
0 -350 38 -602 115 -772 63 -137 132 -197 231 -198 62 0 109 29 159 100 36 50
37 50 50 -33 7 -41 8 -42 46 -42 l39 0 0 520 0 520 -160 0 -160 0 0 -95 0 -95
55 0 55 0 0 -280 c0 -300 -7 -364 -45 -400 -45 -43 -89 3 -114 119 -32 152
-39 966 -11 1221 21 187 66 281 127 265 40 -10 50 -21 73 -81 23 -64 40 -192
40 -319 l0 -90 55 60 55 60 -6 55 c-18 173 -54 318 -100 397 -52 89 -139 122
-222 84z"/>
<path d="M4256 2045 c-51 -18 -118 -84 -149 -150 -38 -76 -74 -207 -94 -342
-25 -170 -25 -772 0 -953 48 -340 135 -502 284 -526 173 -27 295 170 337 548
47 416 21 932 -58 1184 -63 198 -183 288 -320 239z m93 -164 c59 -59 75 -274
68 -927 -3 -282 -9 -517 -16 -556 -14 -86 -38 -146 -64 -160 -17 -9 -24 -7
-44 16 -49 57 -61 169 -69 636 -7 396 7 795 32 900 13 58 44 110 66 110 4 0
17 -9 27 -19z"/>
<path d="M6000 2049 c-116 -35 -199 -182 -241 -428 -63 -369 -42 -1019 42
-1281 60 -189 162 -285 282 -266 221 36 319 391 304 1096 -10 429 -55 665
-154 794 -60 78 -148 110 -233 85z m93 -181 c35 -47 47 -140 59 -476 9 -245 9
-403 0 -650 -12 -339 -23 -432 -59 -479 -27 -37 -39 -38 -67 -10 -52 52 -66
223 -66 812 0 573 14 749 62 810 24 31 44 29 71 -7z"/>
<path d="M4975 2032 c-131 -80 -222 -338 -256 -727 -14 -170 -6 -572 15 -725
44 -323 133 -482 281 -505 197 -32 323 221 325 647 l0 88 -47 34 -48 35 -6
-197 c-9 -264 -39 -381 -112 -436 -26 -19 -30 -19 -54 -6 -55 31 -89 136 -114
350 -16 137 -16 733 0 910 22 242 59 374 107 386 88 22 131 -92 142 -378 l7
-168 48 60 48 59 -10 144 c-19 254 -68 383 -163 433 -39 20 -127 18 -163 -4z"/>
<path d="M2050 1065 l0 -965 40 0 40 0 1 588 0 587 151 -587 151 -588 89 0 88
0 0 965 0 965 -40 0 -40 0 -2 -642 -3 -642 -165 640 -165 639 -73 3 -72 3 0
-966z"/>
<path d="M2720 1065 l0 -965 265 0 265 0 0 100 0 100 -155 0 -155 0 0 375 0
375 110 0 110 0 0 100 0 100 -110 0 -110 0 0 290 0 290 135 0 135 0 0 100 0
100 -245 0 -245 0 0 -965z"/>
<path d="M5420 1065 l0 -965 110 0 110 0 0 965 0 965 -110 0 -110 0 0 -965z"/>
<path d="M363 1173 c-129 -3 -162 -10 -133 -28 18 -11 29 -78 23 -141 -3 -35
-9 -64 -13 -64 -3 0 -12 16 -20 35 -8 19 -17 35 -21 35 -4 0 -9 8 -12 18 -6
17 -37 72 -47 82 -3 3 -11 17 -19 33 -13 24 -20 27 -68 27 -29 0 -53 -4 -53
-10 0 -5 9 -10 20 -10 20 0 21 -5 19 -140 -1 -129 -11 -190 -31 -190 -5 0 -8
-4 -8 -10 0 -6 27 -10 60 -10 33 0 60 2 60 5 0 2 -8 19 -18 37 -14 25 -19 60
-21 143 -1 60 -5 113 -7 117 -3 5 -1 8 4 8 8 0 38 -54 30 -56 -1 0 9 -17 24
-36 15 -20 24 -38 21 -42 -4 -3 -1 -6 5 -6 7 0 12 -5 12 -10 0 -6 12 -28 26
-50 14 -22 34 -54 43 -72 10 -21 25 -34 39 -36 l24 -4 -2 134 c-1 73 1 142 3
153 8 46 19 65 37 65 17 0 18 -11 19 -148 2 -155 -2 -182 -25 -182 -8 0 -14
-4 -14 -9 0 -5 46 -11 103 -13 108 -3 133 6 121 44 -3 9 0 19 5 22 6 4 7 14 4
23 -4 11 -3 14 5 9 7 -4 12 -11 12 -16 0 -28 70 -80 107 -80 10 0 40 11 66 25
l47 26 10 -26 c5 -14 16 -25 25 -25 12 0 15 14 15 71 0 52 3 70 13 66 6 -2 11
-12 11 -21 -1 -9 3 -16 9 -16 6 0 8 -3 4 -6 -11 -11 55 -73 90 -85 19 -6 49
-8 67 -5 36 7 126 60 126 75 0 5 5 22 12 38 6 15 13 39 15 53 7 38 13 37 13
-2 0 -115 92 -194 183 -157 37 15 112 77 104 85 -3 3 -24 -8 -48 -25 -96 -70
-180 -11 -181 126 -1 94 48 144 126 129 30 -6 40 -13 48 -37 6 -18 17 -29 29
-29 16 0 19 7 19 46 0 36 3 45 16 42 23 -5 23 -321 0 -326 -9 -2 -16 -8 -16
-13 0 -5 32 -9 70 -9 67 0 93 12 50 23 -19 5 -20 14 -20 166 0 154 1 161 20
161 11 0 20 5 20 10 0 13 -137 13 -142 1 -2 -6 -21 -5 -49 1 -25 6 -62 8 -81
4 -42 -8 -118 -60 -118 -81 0 -8 -5 -15 -11 -15 -5 0 -7 -4 -4 -10 3 -5 1 -10
-5 -10 -6 0 -9 -4 -5 -9 3 -5 1 -12 -5 -16 -5 -3 -10 0 -11 7 -2 35 -10 53
-36 80 -54 57 -111 72 -176 45 -31 -14 -106 -87 -108 -107 -1 -6 -2 -14 -3
-19 0 -5 -4 -13 -8 -17 -5 -4 -8 -18 -8 -31 0 -22 -4 -23 -65 -23 -64 0 -91
-16 -38 -22 35 -4 39 -43 7 -75 -64 -64 -144 10 -144 134 0 88 34 133 100 133
42 0 66 -15 74 -45 4 -16 13 -25 26 -25 17 0 20 7 20 45 0 44 -1 44 -42 56
-128 34 -238 -55 -234 -190 1 -52 -2 -61 -18 -63 -11 -2 -20 -12 -22 -23 -4
-24 -39 -55 -64 -55 -16 0 -19 11 -22 75 l-3 75 43 0 c31 0 42 4 42 15 0 10
-10 15 -30 15 -35 0 -60 39 -60 95 0 30 3 35 23 35 30 0 44 -11 56 -43 6 -15
17 -27 26 -27 12 0 15 12 15 55 0 47 -3 55 -17 53 -10 -1 -82 -4 -160 -5z
m699 -60 c33 -20 63 -70 73 -125 14 -73 -35 -148 -96 -148 -31 0 -83 39 -103
79 -35 68 -25 162 22 197 24 19 69 17 104 -3z"/>
<path d="M1742 1159 c-112 -44 -161 -198 -94 -288 49 -66 128 -85 202 -48 32
16 87 82 82 100 -1 4 3 7 9 7 5 0 7 5 4 10 -4 6 -3 16 2 23 8 10 10 71 3 80
-1 1 -3 10 -5 19 -14 74 -127 128 -203 97z m77 -43 c36 -19 57 -52 72 -111 30
-120 -67 -209 -151 -139 -37 32 -55 65 -64 120 -8 46 12 108 42 130 23 18 66
17 101 0z"/>
<path d="M155 738 c2 -18 4 -33 5 -33 1 0 3 -9 4 -20 2 -11 11 -47 21 -80 10
-33 18 -63 17 -67 -1 -5 3 -8 10 -8 6 0 9 -3 6 -6 -4 -3 9 -39 28 -80 18 -41
31 -74 29 -74 -3 0 3 -17 14 -39 11 -21 17 -41 14 -45 -4 -3 -1 -6 5 -6 7 0
11 -3 10 -8 -3 -7 10 -40 48 -127 23 -55 39 -100 36 -107 -1 -5 3 -8 9 -8 5 0
8 -4 5 -9 -11 -18 28 -21 197 -16 200 5 291 17 402 52 114 36 270 118 322 169
7 7 23 21 36 31 12 10 42 43 67 73 25 30 48 57 51 60 3 3 14 21 25 40 10 19
21 37 24 40 10 10 71 130 66 130 -3 0 3 20 14 45 11 25 17 45 13 45 -3 0 0 7
7 15 7 8 9 15 4 15 -4 0 -3 5 3 11 23 23 2 39 -52 39 l-53 0 -16 -47 c-9 -27
-16 -52 -17 -58 0 -5 -20 -47 -45 -93 -83 -157 -203 -274 -351 -344 -133 -63
-243 -85 -505 -104 l-98 -6 0 261 0 262 -52 -3 -53 -3 -5 -130 -5 -130 -23 57
c-13 31 -23 60 -23 63 1 3 -10 28 -24 55 -14 28 -22 50 -19 50 4 0 1 7 -6 15
-7 8 -9 15 -5 15 4 0 3 6 -3 13 -6 6 -10 15 -10 20 -1 9 -12 67 -18 90 -4 13
-16 17 -59 17 l-53 0 3 -32z"/>
</g>
</svg>
